<svg xmlns="http://www.w3.org/2000/svg" viewBox="0 0 1024 1024" fill="none">
  <!-- Fashion Logo - Sketch to Reality -->
  <defs>
    <linearGradient id="dress-gradient" x1="0%" y1="0%" x2="100%" y2="100%">
      <stop offset="0%" style="stop-color:#0ea5e9;stop-opacity:1" />
      <stop offset="100%" style="stop-color:#06b6d4;stop-opacity:1" />
    </linearGradient>
    <linearGradient id="swirl-gradient-1" x1="0%" y1="0%" x2="100%" y2="100%">
      <stop offset="0%" style="stop-color:#a855f7;stop-opacity:1" />
      <stop offset="100%" style="stop-color:#9333ea;stop-opacity:1" />
    </linearGradient>
    <linearGradient id="swirl-gradient-2" x1="0%" y1="0%" x2="100%" y2="100%">
      <stop offset="0%" style="stop-color:#fb923c;stop-opacity:1" />
      <stop offset="100%" style="stop-color:#f97316;stop-opacity:1" />
    </linearGradient>
  </defs>
  
  <!-- Dress -->
  <path d="M300 230 L350 180 L400 200 L420 250 L450 300 L450 600 C450 700 400 750 350 750 C300 750 250 700 250 600 L250 300 L280 250 Z" 
        fill="url(#dress-gradient)" stroke="#0284c7" stroke-width="8"/>
  
  <!-- Purple Swirl -->
  <path d="M450 350 Q500 400 550 450 Q600 500 650 550 Q700 600 750 650" 
        fill="none" stroke="url(#swirl-gradient-1)" stroke-width="60" stroke-linecap="round"/>
  
  <!-- Orange Swirl -->
  <path d="M650 550 Q700 500 750 450 Q800 400 850 350 Q900 300 950 250" 
        fill="none" stroke="url(#swirl-gradient-2)" stroke-width="60" stroke-linecap="round"/>
</svg>
